<svg width="1024" height="1024" viewBox="0 0 1024 1024" fill="none" xmlns="http://www.w3.org/2000/svg">
<path d="M754.788 534.835V588.362H794.935C804.883 588.362 809.858 588.362 813.994 589.185C830.982 592.564 844.261 605.842 847.639 622.829C848.462 626.966 848.462 631.94 848.462 641.888C848.462 651.837 848.462 656.811 847.639 660.948C844.261 677.935 830.982 691.213 813.994 694.592C809.858 695.415 804.883 695.415 794.935 695.415H754.788V748.942H794.935C795.631 748.942 796.363 748.944 797.128 748.946C804.479 748.969 814.826 749.002 824.437 747.09C862.658 739.488 892.536 709.611 900.139 671.39C902.05 661.78 902.018 651.433 901.995 644.082C901.992 643.317 901.99 642.584 901.99 641.889C901.99 641.193 901.992 640.46 901.995 639.695C902.018 632.344 902.05 621.997 900.139 612.387C892.536 574.166 862.658 544.289 824.437 536.687C814.826 534.775 804.479 534.808 797.128 534.831C796.363 534.833 795.631 534.835 794.935 534.835H754.788Z" fill="#202024"/>
<path d="M666.334 469.539C714.268 485.359 744.082 507.563 744.082 532.149C744.082 580.191 630.239 619.138 489.807 619.138C349.374 619.138 235.532 580.191 235.532 532.149C235.532 507.173 266.298 484.657 315.571 468.792C307.537 453.15 300.906 436.438 295.813 418.932C294.762 419.281 293.718 419.633 292.68 419.989C266.469 428.955 241.419 440.839 221.849 456.667C202.736 472.127 182 497.303 182 532.149C182 569.717 182 638.389 183.855 654.181C198.401 777.998 281.919 875.625 418.198 890.28C433.873 892.149 452.518 892.149 489.807 892.149C527.096 892.149 545.74 892.149 561.415 890.28C697.695 875.625 781.212 777.998 795.758 654.181C797.613 638.389 797.613 569.717 797.613 532.149C797.613 497.303 776.878 472.127 757.764 456.667C738.194 440.839 713.144 428.955 686.934 419.989C686.702 419.909 686.47 419.83 686.237 419.751C681.094 437.238 674.415 453.926 666.334 469.539Z" fill="#202024"/>
</svg>
