<svg width="1024" height="1024" viewBox="0 0 1024 1024" fill="none" xmlns="http://www.w3.org/2000/svg">
<path d="M547.83 522.487C606.021 492.477 647.167 418.655 647.167 332.342C647.167 235.221 595.07 153.914 525.214 133.046C516.515 130.448 507.25 132.866 500.008 138.342C470.582 160.593 465.252 198.309 484.492 247.998L543.279 400.566C561.905 448.258 563.246 489.411 547.83 522.487Z" fill="#202024"/>
<path d="M433.902 139.952C375.711 169.962 334.565 243.784 334.565 330.097C334.565 427.218 386.662 508.526 456.518 529.393C465.217 531.991 474.482 529.573 481.724 524.097C511.15 501.846 516.48 464.13 497.24 414.442L438.453 261.873C419.827 214.182 418.486 173.028 433.902 139.952Z" fill="#202024"/>
</svg>
